<svg width="39" height="48" viewBox="0 0 39 48" fill="none" xmlns="http://www.w3.org/2000/svg">
<g clip-path="url(#clip0_76_4)">
<mask id="mask0_76_4" style="mask-type:luminance" maskUnits="userSpaceOnUse" x="0" y="0" width="39" height="48">
<path d="M38.5 0.191406H0.5V47.3638H38.5V0.191406Z" fill="white"/>
</mask>
<g mask="url(#mask0_76_4)">
<path d="M21.2487 13.0986C21.9388 13.0986 22.4982 12.5335 22.4982 11.8364C22.4982 11.1393 21.9388 10.5742 21.2487 10.5742C20.5585 10.5742 19.999 11.1393 19.999 11.8364C19.999 12.5335 20.5585 13.0986 21.2487 13.0986Z" fill="#141715"/>
<path d="M20.9106 9.49945C20.51 9.29876 20.293 9.00414 20.1103 8.53854C19.4733 6.92166 18.9696 4.46836 18.9218 2.42985C18.9134 2.06076 18.8783 1.6832 18.9864 1.33018C19.1498 0.795162 19.6066 0.362574 20.1454 0.233051C20.6844 0.103529 21.2853 0.282152 21.67 0.68511C22.1619 1.20151 22.2952 1.97187 22.3144 2.6889C22.3722 4.81459 22.2717 6.75828 21.8157 8.54789C21.8157 8.54789 21.4655 9.71528 20.9106 9.49945Z" fill="#141715"/>
<path d="M26.0216 14.1142C26.7118 14.1142 27.2712 13.5492 27.2712 12.8521C27.2712 12.1549 26.7118 11.5898 26.0216 11.5898C25.3315 11.5898 24.772 12.1549 24.772 12.8521C24.772 13.5492 25.3315 14.1142 26.0216 14.1142Z" fill="#141715"/>
<path d="M26.8371 10.5145C26.5563 10.1623 26.4817 9.80331 26.5085 9.30386C26.6007 7.56676 27.1606 5.12529 27.9626 3.25358C28.1076 2.91411 28.2325 2.55686 28.4772 2.28173C28.8468 1.86523 29.4419 1.66544 29.985 1.77634C30.528 1.88639 30.9999 2.30289 31.1817 2.83199C31.4147 3.50923 31.2161 4.2652 30.9362 4.92382C30.1073 6.87851 29.2097 8.60124 28.054 10.0336C28.054 10.0336 27.252 10.9454 26.8379 10.5153L26.8371 10.5145Z" fill="#141715"/>
<path d="M28.8981 17.3642C29.5882 17.3642 30.1477 16.7992 30.1477 16.102C30.1477 15.4049 29.5882 14.8398 28.8981 14.8398C28.2079 14.8398 27.6484 15.4049 27.6484 16.102C27.6484 16.7992 28.2079 17.3642 28.8981 17.3642Z" fill="#141715"/>
<path d="M30.745 14.4788C30.6914 14.0301 30.817 13.6855 31.102 13.2758C32.0926 11.8519 33.8485 10.0826 35.5113 8.92534C35.8121 8.71546 36.1054 8.47927 36.4575 8.37682C36.9896 8.22188 37.5989 8.37086 38.0012 8.7561C38.4035 9.14043 38.5854 9.74655 38.4613 10.2917C38.303 10.991 37.7381 11.5251 37.1547 11.934C35.4257 13.1471 33.7604 14.1266 32.029 14.7218C32.029 14.7218 30.8707 15.0663 30.745 14.4788Z" fill="#141715"/>
<path d="M27.9539 39.4453C27.9414 39.4581 27.8852 39.5063 27.8525 39.53C27.9154 39.4767 27.9447 39.4521 27.9539 39.4453Z" fill="#141715"/>
<path d="M32.836 27.8948C32.365 26.7664 31.4632 25.7886 30.2177 25.5219C30.0753 25.4914 29.9311 25.4677 29.787 25.4483C29.4685 24.5966 29.088 23.7687 28.6497 22.973C27.5753 21.0259 26.1555 19.271 24.4684 17.8319C24.233 17.6303 23.9916 17.4348 23.7452 17.246C22.3288 16.1608 20.2319 15.4336 18.5239 15.9313C18.0981 14.4736 17.2701 13.0895 16.4261 11.8306C15.7632 10.8419 13.9144 8.89649 13.0444 9.18515C12.4083 9.39594 12.2273 10.223 12.1493 10.8944C11.9356 12.7145 12.0487 14.2933 12.4343 16.0634C12.6229 16.9303 12.9229 17.7608 12.4 18.0274C12.2247 18.1163 10.298 18.9857 9.99625 19.1161C9.3015 17.8937 8.41059 16.7855 7.36884 15.8475C6.67574 15.2236 5.86279 14.7504 4.97273 14.4863C4.06424 14.217 3.14988 14.3449 2.65624 15.1381C2.35955 15.6148 2.15506 16.4672 2.12238 17.0284C2.01259 18.9468 2.20283 20.882 2.68139 22.741C2.79452 23.182 3.02165 23.6494 3.08534 24.0972C3.14821 24.534 2.90432 25.0123 2.77357 25.4313C2.46683 26.4184 2.05617 27.4343 1.7754 28.429C0.908816 31.4952 0.595369 33.8351 0.539217 34.5749C0.436131 35.932 0.544245 36.8412 0.742874 38.0484C1.17198 40.6574 2.78615 41.7402 3.77677 42.326C4.80847 42.9363 5.98766 43.2479 7.17105 43.3673C7.66134 43.4172 8.43238 43.2758 8.86652 43.4672C9.34257 43.6771 9.82024 44.2273 10.251 44.5355C12.1418 45.8874 14.2831 46.9922 16.6071 47.2851C16.7915 47.3088 16.9768 47.3265 17.1628 47.3393C18.0923 47.4036 19.031 47.3317 19.9403 47.1268C20.4431 47.0125 20.9443 46.8551 21.3784 46.574C21.7598 46.3276 22.0774 45.9932 22.3816 45.6538C23.1903 44.7539 23.9363 43.7965 24.6143 42.7916C26.1581 42.5605 27.6616 42.0364 28.9154 41.0942C29.3998 40.7294 29.8549 40.3374 30.2438 39.8727C30.6729 39.3597 31.0215 38.8018 31.3409 38.2151C32.4739 36.13 33.1285 33.8088 33.2576 31.4452C33.3229 30.266 33.2978 29.0004 32.836 27.8948ZM30.0611 27.4444C30.077 27.4504 30.0912 27.4572 30.1071 27.4639C30.1096 27.4656 30.1122 27.4673 30.1122 27.469C30.0803 27.4554 30.056 27.4453 30.0367 27.4368C30.0451 27.4394 30.0535 27.4419 30.0611 27.4444ZM25.6962 25.7539C25.6988 26.3515 24.8154 26.8391 23.7242 26.8434C22.633 26.8467 21.7463 26.3659 21.7446 25.7682C21.7446 25.7361 21.748 25.7048 21.753 25.6735C21.9341 25.7835 22.1805 25.8512 22.452 25.8504C23.006 25.8487 23.4535 25.5634 23.4519 25.2138C23.4519 25.0216 23.3153 24.8506 23.1024 24.7355C23.296 24.6999 23.5022 24.6796 23.7167 24.6787C24.8079 24.6754 25.6946 25.1571 25.6962 25.7539ZM20.4892 22.0426C20.5797 21.4103 20.8664 20.9557 21.406 20.6212C21.5569 20.5273 21.7229 20.4587 21.893 20.4096C22.6456 20.1929 23.4996 20.374 24.1014 20.8794C24.357 21.0936 24.5724 21.3696 24.6654 21.6913C24.7584 22.0138 24.7166 22.3846 24.5104 22.6479C24.305 22.9086 23.9748 23.0314 23.6547 23.1135C22.7621 23.3429 21.4522 23.2523 20.9493 22.94C20.4213 22.6267 20.4892 22.0426 20.4892 22.0426ZM18.539 28.6694C18.5406 29.2671 17.6581 29.7547 16.5669 29.758C15.4749 29.7623 14.589 29.2806 14.5865 28.6829C14.5865 28.6508 14.5907 28.6194 14.5949 28.5882C14.7759 28.6991 15.0223 28.7667 15.2947 28.7659C15.8478 28.7634 16.2954 28.4789 16.2945 28.1284C16.2937 27.9372 16.1579 27.7661 15.9442 27.6502C16.1378 27.6146 16.3439 27.5951 16.5593 27.5943C17.6506 27.5901 18.5373 28.0717 18.539 28.6694ZM13.5372 11.84C13.5623 11.4887 13.647 11.0509 13.9319 10.8469C14.1565 10.687 14.703 10.7216 15.2897 11.4463C16.3633 12.7746 17.1125 14.3686 17.6003 16.0109C17.7092 16.3766 17.7913 16.7474 17.7352 17.1064C17.6539 17.6287 17.177 18.0147 16.67 18.1493C15.0474 18.6318 14.5798 17.7734 14.5798 17.7734C14.3283 17.5152 13.8322 16.0101 13.7057 14.9646C13.5791 13.9191 13.4601 12.8999 13.5372 11.84ZM10.2946 25.7268C10.5402 25.0055 10.9408 24.3393 11.4604 23.7865C11.7312 23.4978 12.0387 23.2362 12.3974 23.0737C12.7569 22.9112 13.3377 22.7698 13.7032 22.9154C14.325 23.1642 14.6602 23.6807 14.5991 24.4223C14.5991 24.4223 14.506 25.1511 13.9403 26.2059C13.5666 26.84 12.9673 27.5121 12.2155 27.8237C11.9264 27.9439 11.6155 28.0083 11.3029 28.0023C9.67107 27.9744 10.2393 25.8877 10.2946 25.7268ZM4.52519 22.5971C3.93182 20.6864 3.79605 18.6496 3.97624 16.6551C4.00641 16.314 4.06759 15.9339 4.33913 15.729C4.53357 15.5817 4.80008 15.5605 5.03559 15.6206C5.2711 15.6799 5.4823 15.8103 5.68511 15.9466C7.09981 16.8973 8.27985 18.2001 9.09193 19.7078C9.30983 20.1116 9.50516 20.5467 9.50597 21.0064C9.50678 21.6709 9.09112 22.278 8.56228 22.6724C8.56228 22.6724 7.49623 23.5774 6.1117 23.8838C5.04984 24.1218 4.64085 22.9704 4.52519 22.5971ZM31.2956 31.0711C31.2847 31.5799 31.2805 32.1267 31.18 32.6288C31.1825 32.6101 31.1858 32.5872 31.1875 32.5703C31.185 32.5805 31.1833 32.5957 31.18 32.6144C31.1699 32.6829 31.1598 32.7515 31.1489 32.82C31.1271 32.9572 31.1028 33.0944 31.0768 33.2307C31.0282 33.4914 30.9721 33.7512 30.9084 34.0103C30.7852 34.5157 30.6352 35.0152 30.4592 35.5053C30.3737 35.7449 30.2807 35.9819 30.1834 36.2173C30.1826 36.2207 30.1818 36.2223 30.1809 36.2249C30.1776 36.2317 30.1751 36.2376 30.1709 36.2461C30.1424 36.3095 30.1147 36.373 30.0862 36.4365C30.0284 36.5627 29.9689 36.6879 29.9077 36.8132C29.6034 37.4346 29.2632 38.0475 28.8525 38.6071C28.835 38.6291 28.8165 38.6511 28.7981 38.6723C28.726 38.7586 28.6505 38.8424 28.5735 38.9245C28.3983 39.1107 28.2114 39.2869 28.0161 39.4528C27.9591 39.5019 27.9013 39.5493 27.8427 39.5959C27.8175 39.6162 27.7915 39.6348 27.7672 39.6542C27.7722 39.65 27.7773 39.6458 27.7823 39.6416C27.6415 39.744 27.4965 39.8422 27.349 39.9354C27.0104 40.1478 26.6559 40.329 26.2905 40.4932C26.2352 40.5152 26.1799 40.5372 26.1237 40.5584C26.0231 40.5965 25.9209 40.6328 25.8178 40.6668C25.7131 40.7023 25.5353 40.7447 25.3217 40.7869C25.0383 40.8394 24.7417 40.881 24.4257 40.9063C20.651 41.2111 16.8167 41.6149 13.1684 40.5888C8.05776 39.1523 7.33615 34.9449 7.00175 33.6192C6.81737 32.8886 6.67909 32.1005 6.93554 31.3928C7.26073 30.4946 8.18012 29.9147 9.11627 29.78C10.0533 29.6455 11.0045 29.8885 11.8895 30.2262C11.8895 30.2262 13.2305 30.7748 15.1011 31.9659C15.516 32.2477 15.8839 32.3934 16.1906 32.3299C16.6809 32.2291 17.4662 31.7543 17.8953 31.4944C19.6134 30.4556 21.3315 29.3991 23.1753 28.6093C24.5279 28.0295 25.9603 27.5968 27.4177 27.4428C27.9047 27.4004 28.395 27.3826 28.8835 27.397C29.0177 27.4012 29.1517 27.4064 29.2859 27.4156C29.3462 27.4199 29.4065 27.4266 29.4669 27.4309C29.4752 27.4309 29.4811 27.4318 29.4886 27.4318C29.4928 27.4326 29.4953 27.4334 29.4995 27.4343C29.6303 27.4606 29.7585 27.4851 29.8859 27.5249C29.8943 27.5274 29.9211 27.5341 29.9496 27.5427C29.958 27.5461 29.968 27.5511 29.9806 27.5571C30.0167 27.5739 30.0518 27.5926 30.087 27.6112C30.1139 27.6264 30.2932 27.7593 30.3309 27.7687C30.3762 27.8085 30.4206 27.8482 30.4634 27.8906C30.5329 27.9591 30.5966 28.0319 30.6619 28.1048C30.6628 28.1064 30.6628 28.1073 30.6645 28.109C30.7081 28.1759 30.755 28.2411 30.7969 28.3096C30.8497 28.396 30.8984 28.484 30.9427 28.5738C30.9511 28.5898 30.9645 28.6118 30.9779 28.6313C30.9955 28.677 31.009 28.7261 31.024 28.7676C31.1213 29.0419 31.18 29.3221 31.2344 29.6065C31.2361 29.6142 31.2378 29.6192 31.2386 29.626C31.2445 29.6793 31.2512 29.7318 31.2562 29.7852C31.2704 29.9299 31.2796 30.0747 31.2864 30.2194C31.2998 30.503 31.3014 30.7875 31.2956 31.0711Z" fill="#141715"/>
<path d="M30.0393 27.5778C30.0242 27.572 30.0091 27.5644 29.994 27.5584C29.9857 27.5558 29.9781 27.5533 29.9697 27.5508C29.989 27.5592 30.0133 27.5702 30.0452 27.5838C30.0452 27.5821 30.0427 27.5796 30.0393 27.5778Z" fill="#141715"/>
<path d="M29.2429 30.1204C29.051 31.8541 27.9103 33.0977 27.6924 33.2899C27.6924 33.2899 27.363 33.6396 26.6616 33.5185C26.0573 33.3873 25.4639 33.2002 24.8932 32.9598C24.4615 32.7786 24.0342 32.561 23.7073 32.2241C23.3796 31.8871 23.1633 31.4123 23.2312 30.9449C23.3176 30.3558 23.9411 29.6954 24.4481 29.3916C25.4782 28.7761 26.4914 28.6009 27.741 28.6229C28.0444 28.6279 28.3847 28.6838 28.6344 28.8565C29.0794 29.1638 29.2982 29.6192 29.2429 30.1204Z" fill="#141715"/>
</g>
</g>
<defs>
<clipPath id="clip0_76_4">
<rect width="38" height="48" fill="white" transform="translate(0.5)"/>
</clipPath>
</defs>
</svg>
