<svg width="1620" height="29" viewBox="0 0 1620 29" fill="none" xmlns="http://www.w3.org/2000/svg">
<path d="M1465.55 0C1473.5 0.000199864 1480.12 5.7429 1481.56 13.3398C1483.26 13.5744 1484.85 14.1827 1486.23 15.0811C1487.77 12.509 1490.57 10.7891 1493.76 10.7891C1496.54 10.7891 1499.02 12.0938 1500.63 14.1299C1503.2 12.3437 1506.31 11.2979 1509.66 11.2979C1516.89 11.2979 1522.99 16.1601 1524.92 22.8174C1526.81 21.2175 1529.26 20.2549 1531.92 20.2549C1536.62 20.2549 1540.62 23.2507 1542.15 27.4512C1543.1 26.7522 1544.21 26.2657 1545.42 26.0615C1547.26 22.6053 1550.87 20.255 1555.04 20.2549C1555.82 20.2549 1556.58 20.3381 1557.32 20.4961C1557.28 20.0649 1557.26 19.6275 1557.26 19.1855C1557.26 11.6252 1563.33 5.4963 1570.83 5.49609C1574.22 5.49609 1577.31 6.74509 1579.69 8.81055C1580.99 7.81671 1582.61 7.22656 1584.36 7.22656C1588.63 7.22672 1592.08 10.7126 1592.08 15.0127C1592.08 15.1486 1592.08 15.2838 1592.07 15.418C1596.49 16.745 1599.73 20.8179 1599.85 25.6719C1600.9 25.1367 1602.08 24.835 1603.34 24.835C1604.72 24.835 1606.02 25.2017 1607.14 25.8438C1607.97 23.3642 1610.29 21.5772 1613.03 21.5771C1616.46 21.5771 1619.24 24.38 1619.24 27.8369C1619.24 28.2344 1619.2 28.623 1619.13 29H0.603516C1.85941 27.1606 3.96149 25.9541 6.34375 25.9541C8.69562 25.9541 10.775 27.1298 12.0361 28.9297C13.7465 27.6974 15.8411 26.9717 18.1035 26.9717C18.3606 26.9717 18.6158 26.9816 18.8682 27C18.7312 26.4195 18.6592 25.8132 18.6592 25.1904C18.6594 20.8905 22.1163 17.4046 26.3809 17.4043C27.7669 17.4043 29.0679 17.7733 30.1924 18.418C32.3663 12.8768 37.7273 8.95711 43.9961 8.95703C51.8224 8.95703 58.2334 15.0659 58.7949 22.8125C60.195 21.6591 61.9837 20.9669 63.9326 20.9668C64.3166 20.9668 64.6947 20.994 65.0645 21.0459C65.5938 17.0369 68.9983 13.9443 73.1191 13.9443C76.7077 13.9444 79.7527 16.2895 80.8291 19.543C82.7056 19.5748 84.4276 20.248 85.7881 21.3545C85.8257 14.501 91.3472 8.9571 98.1533 8.95703C98.6989 8.95703 99.2368 8.99245 99.7637 9.06152C101.765 5.59079 105.493 3.257 109.762 3.25684C112.529 3.25684 115.069 4.23726 117.059 5.87207C120.049 2.28214 124.534 0 129.548 0C137.501 0.000199864 144.123 5.7429 145.561 13.3398C147.264 13.5744 148.85 14.1827 150.233 15.0811C151.77 12.509 154.567 10.7891 157.762 10.7891C160.544 10.7891 163.025 12.0938 164.634 14.1299C167.198 12.3437 170.308 11.2979 173.66 11.2979C180.887 11.2979 186.988 16.1601 188.921 22.8174C190.814 21.2175 193.255 20.2549 195.919 20.2549C200.617 20.2549 204.62 23.2507 206.153 27.4512C207.101 26.7522 208.213 26.2657 209.42 26.0615C211.257 22.6053 214.874 20.255 219.035 20.2549C219.818 20.2549 220.581 20.3381 221.317 20.4961C221.277 20.0649 221.256 19.6275 221.256 19.1855C221.256 11.6252 227.335 5.4963 234.833 5.49609C238.218 5.49609 241.314 6.74509 243.691 8.81055C244.988 7.81671 246.606 7.22656 248.36 7.22656C252.625 7.22672 256.082 10.7126 256.082 15.0127C256.082 15.1486 256.079 15.2838 256.072 15.418C260.488 16.745 263.73 20.8179 263.852 25.6719C264.899 25.1367 266.083 24.835 267.338 24.835C268.721 24.835 270.019 25.2017 271.142 25.8438C271.967 23.3642 274.291 21.5772 277.028 21.5771C277.187 21.5771 277.344 21.5859 277.5 21.5977C277.656 21.5859 277.813 21.5771 277.972 21.5771C280.709 21.5772 283.033 23.3642 283.858 25.8438C284.981 25.2017 286.279 24.835 287.662 24.835C288.917 24.835 290.101 25.1367 291.148 25.6719C291.27 20.8179 294.512 16.745 298.928 15.418C298.921 15.2838 298.918 15.1486 298.918 15.0127C298.918 10.7126 302.375 7.22672 306.64 7.22656C308.394 7.22656 310.012 7.81671 311.309 8.81055C313.686 6.74509 316.782 5.49609 320.167 5.49609C327.665 5.4963 333.744 11.6252 333.744 19.1855C333.744 19.6275 333.723 20.0649 333.683 20.4961C334.419 20.3381 335.182 20.2549 335.965 20.2549C340.126 20.255 343.743 22.6053 345.58 26.0615C346.787 26.2657 347.899 26.7522 348.847 27.4512C350.38 23.2507 354.383 20.2549 359.081 20.2549C361.745 20.2549 364.186 21.2175 366.079 22.8174C368.012 16.1601 374.113 11.2979 381.34 11.2979C384.692 11.2979 387.802 12.3437 390.366 14.1299C391.975 12.0938 394.456 10.7891 397.238 10.7891C400.433 10.7891 403.23 12.509 404.767 15.0811C406.15 14.1827 407.736 13.5744 409.439 13.3398C410.877 5.7429 417.499 0.000199864 425.452 0C430.466 0 434.951 2.28214 437.941 5.87207C439.931 4.23726 442.471 3.25684 445.238 3.25684C449.507 3.257 453.235 5.59079 455.236 9.06152C455.763 8.99245 456.301 8.95703 456.847 8.95703C463.653 8.9571 469.174 14.501 469.212 21.3545C470.572 20.248 472.294 19.5748 474.171 19.543C475.247 16.2895 478.292 13.9444 481.881 13.9443C486.002 13.9443 489.406 17.0369 489.936 21.0459C490.305 20.994 490.683 20.9668 491.067 20.9668C493.016 20.9669 494.805 21.6591 496.205 22.8125C496.767 15.0659 503.178 8.95703 511.004 8.95703C517.273 8.95711 522.634 12.8768 524.808 18.418C525.932 17.7733 527.233 17.4043 528.619 17.4043C532.884 17.4046 536.341 20.8905 536.341 25.1904C536.341 25.8132 536.269 26.4195 536.132 27C536.384 26.9816 536.639 26.9717 536.896 26.9717C539.068 26.9717 541.085 27.6415 542.756 28.7852C544.026 27.0673 546.056 25.9541 548.344 25.9541C548.396 25.9541 548.448 25.9578 548.5 25.959C548.552 25.9578 548.604 25.9541 548.656 25.9541C550.944 25.9541 552.973 27.0675 554.243 28.7852C555.914 27.6412 557.931 26.9717 560.104 26.9717C560.361 26.9717 560.616 26.9816 560.868 27C560.731 26.4195 560.659 25.8132 560.659 25.1904C560.659 20.8905 564.116 17.4046 568.381 17.4043C569.767 17.4043 571.068 17.7733 572.192 18.418C574.366 12.8768 579.727 8.95711 585.996 8.95703C593.822 8.95703 600.233 15.0659 600.795 22.8125C602.195 21.6591 603.984 20.9669 605.933 20.9668C606.317 20.9668 606.695 20.994 607.064 21.0459C607.594 17.0369 610.998 13.9443 615.119 13.9443C618.708 13.9444 621.753 16.2895 622.829 19.543C624.706 19.5748 626.428 20.248 627.788 21.3545C627.826 14.501 633.347 8.9571 640.153 8.95703C640.699 8.95703 641.237 8.99245 641.764 9.06152C643.765 5.59079 647.493 3.257 651.762 3.25684C654.529 3.25684 657.069 4.23726 659.059 5.87207C662.049 2.28214 666.534 0 671.548 0C679.501 0.000199864 686.123 5.7429 687.561 13.3398C689.264 13.5744 690.85 14.1827 692.233 15.0811C693.77 12.509 696.567 10.7891 699.762 10.7891C702.544 10.7891 705.025 12.0938 706.634 14.1299C709.198 12.3437 712.308 11.2979 715.66 11.2979C722.887 11.2979 728.988 16.1601 730.921 22.8174C732.814 21.2175 735.255 20.2549 737.919 20.2549C742.617 20.2549 746.62 23.2507 748.153 27.4512C749.101 26.7522 750.213 26.2657 751.42 26.0615C753.257 22.6053 756.874 20.255 761.035 20.2549C761.818 20.2549 762.581 20.3381 763.317 20.4961C763.277 20.0649 763.256 19.6275 763.256 19.1855C763.256 11.6252 769.335 5.4963 776.833 5.49609C780.218 5.49609 783.314 6.74509 785.691 8.81055C786.988 7.81671 788.606 7.22656 790.36 7.22656C794.625 7.22672 798.082 10.7126 798.082 15.0127C798.082 15.1486 798.079 15.2838 798.072 15.418C802.488 16.745 805.73 20.8179 805.852 25.6719C806.899 25.1367 808.083 24.835 809.338 24.835C810.532 24.835 811.662 25.1081 812.671 25.5957C812.664 25.4614 812.659 25.3264 812.659 25.1904C812.659 20.8905 816.116 17.4046 820.381 17.4043C821.767 17.4043 823.068 17.7733 824.192 18.418C826.366 12.8768 831.727 8.95711 837.996 8.95703C845.822 8.95703 852.233 15.0659 852.795 22.8125C854.195 21.6591 855.984 20.9669 857.933 20.9668C858.317 20.9668 858.695 20.994 859.064 21.0459C859.594 17.0369 862.998 13.9443 867.119 13.9443C870.708 13.9444 873.753 16.2895 874.829 19.543C876.706 19.5748 878.428 20.248 879.788 21.3545C879.826 14.501 885.347 8.9571 892.153 8.95703C892.699 8.95703 893.237 8.99245 893.764 9.06152C895.765 5.59079 899.493 3.257 903.762 3.25684C906.529 3.25684 909.069 4.23726 911.059 5.87207C914.049 2.28214 918.534 0 923.548 0C931.501 0.000199864 938.123 5.7429 939.561 13.3398C941.264 13.5744 942.85 14.1827 944.233 15.0811C945.77 12.509 948.567 10.7891 951.762 10.7891C954.544 10.7891 957.025 12.0938 958.634 14.1299C961.198 12.3437 964.308 11.2979 967.66 11.2979C974.887 11.2979 980.988 16.1601 982.921 22.8174C984.814 21.2175 987.255 20.2549 989.919 20.2549C994.617 20.2549 998.62 23.2507 1000.15 27.4512C1001.1 26.7522 1002.21 26.2657 1003.42 26.0615C1005.26 22.6053 1008.87 20.255 1013.04 20.2549C1013.82 20.2549 1014.58 20.3381 1015.32 20.4961C1015.28 20.0649 1015.26 19.6275 1015.26 19.1855C1015.26 11.6252 1021.33 5.4963 1028.83 5.49609C1032.22 5.49609 1035.31 6.74509 1037.69 8.81055C1038.99 7.81671 1040.61 7.22656 1042.36 7.22656C1046.63 7.22672 1050.08 10.7126 1050.08 15.0127C1050.08 15.1486 1050.08 15.2838 1050.07 15.418C1054.49 16.745 1057.73 20.8179 1057.85 25.6719C1058.9 25.1367 1060.08 24.835 1061.34 24.835C1062.72 24.835 1064.02 25.2017 1065.14 25.8438C1065.97 23.3642 1068.29 21.5772 1071.03 21.5771C1071.19 21.5771 1071.34 21.5859 1071.5 21.5977C1071.66 21.5859 1071.81 21.5771 1071.97 21.5771C1074.71 21.5772 1077.03 23.3642 1077.86 25.8438C1078.98 25.2017 1080.28 24.835 1081.66 24.835C1082.92 24.835 1084.1 25.1367 1085.15 25.6719C1085.27 20.8179 1088.51 16.745 1092.93 15.418C1092.92 15.2838 1092.92 15.1486 1092.92 15.0127C1092.92 10.7126 1096.37 7.22672 1100.64 7.22656C1102.39 7.22656 1104.01 7.81671 1105.31 8.81055C1107.69 6.74509 1110.78 5.49609 1114.17 5.49609C1121.67 5.4963 1127.74 11.6252 1127.74 19.1855C1127.74 19.6275 1127.72 20.0649 1127.68 20.4961C1128.42 20.3381 1129.18 20.2549 1129.96 20.2549C1134.13 20.255 1137.74 22.6053 1139.58 26.0615C1140.79 26.2657 1141.9 26.7522 1142.85 27.4512C1144.38 23.2507 1148.38 20.2549 1153.08 20.2549C1155.74 20.2549 1158.19 21.2175 1160.08 22.8174C1162.01 16.1601 1168.11 11.2979 1175.34 11.2979C1178.69 11.2979 1181.8 12.3437 1184.37 14.1299C1185.98 12.0938 1188.46 10.7891 1191.24 10.7891C1194.43 10.7891 1197.23 12.509 1198.77 15.0811C1200.15 14.1827 1201.74 13.5744 1203.44 13.3398C1204.88 5.7429 1211.5 0.000199864 1219.45 0C1224.47 0 1228.95 2.28214 1231.94 5.87207C1233.93 4.23726 1236.47 3.25684 1239.24 3.25684C1243.51 3.257 1247.23 5.59079 1249.24 9.06152C1249.76 8.99245 1250.3 8.95703 1250.85 8.95703C1257.65 8.9571 1263.17 14.501 1263.21 21.3545C1264.57 20.248 1266.29 19.5748 1268.17 19.543C1269.25 16.2895 1272.29 13.9444 1275.88 13.9443C1280 13.9443 1283.41 17.0369 1283.94 21.0459C1284.31 20.994 1284.68 20.9668 1285.07 20.9668C1287.02 20.9669 1288.81 21.6591 1290.21 22.8125C1290.77 15.0659 1297.18 8.95703 1305 8.95703C1311.27 8.95711 1316.63 12.8768 1318.81 18.418C1319.93 17.7733 1321.23 17.4043 1322.62 17.4043C1326.88 17.4046 1330.34 20.8905 1330.34 25.1904C1330.34 25.8132 1330.27 26.4195 1330.13 27C1330.38 26.9816 1330.64 26.9717 1330.9 26.9717C1333.07 26.9717 1335.08 27.6415 1336.76 28.7852C1338.03 27.0673 1340.06 25.9541 1342.34 25.9541C1342.4 25.9541 1342.45 25.9578 1342.5 25.959C1342.55 25.9578 1342.6 25.9541 1342.66 25.9541C1344.94 25.9541 1346.97 27.0675 1348.24 28.7852C1349.91 27.6412 1351.93 26.9717 1354.1 26.9717C1354.36 26.9717 1354.62 26.9816 1354.87 27C1354.73 26.4195 1354.66 25.8132 1354.66 25.1904C1354.66 20.8905 1358.12 17.4046 1362.38 17.4043C1363.77 17.4043 1365.07 17.7733 1366.19 18.418C1368.37 12.8768 1373.73 8.95711 1380 8.95703C1387.82 8.95703 1394.23 15.0659 1394.79 22.8125C1396.19 21.6591 1397.98 20.9669 1399.93 20.9668C1400.32 20.9668 1400.69 20.994 1401.06 21.0459C1401.59 17.0369 1405 13.9443 1409.12 13.9443C1412.71 13.9444 1415.75 16.2895 1416.83 19.543C1418.71 19.5748 1420.43 20.248 1421.79 21.3545C1421.83 14.501 1427.35 8.9571 1434.15 8.95703C1434.7 8.95703 1435.24 8.99245 1435.76 9.06152C1437.77 5.59079 1441.49 3.257 1445.76 3.25684C1448.53 3.25684 1451.07 4.23726 1453.06 5.87207C1456.05 2.28214 1460.53 0 1465.55 0Z" fill="white"/>
</svg>
