<svg width="41" height="48" viewBox="0 0 41 48" fill="none" xmlns="http://www.w3.org/2000/svg">
<g clip-path="url(#clip0_76_19)">
<path fill-rule="evenodd" clip-rule="evenodd" d="M24.5981 17.0986C26.0548 16.3664 27.9083 15.2886 29.764 13.812C30.1552 14.631 30.1981 15.3458 29.9965 15.9229C29.8537 16.3296 29.5845 16.6834 29.2305 16.9648C28.8471 17.269 28.3684 17.4904 27.8392 17.6101C26.8351 17.8381 25.6627 17.705 24.5981 17.0986ZM24.8506 24.6003L26.7789 25.723C22.8418 27.9474 21.7714 32.0776 20.5 36.1005C19.2287 32.0776 18.1583 27.9474 14.2213 25.723L16.1495 24.6003C16.3361 24.5293 16.4955 24.4005 16.605 24.2325C16.7145 24.0645 16.7684 23.8659 16.7591 23.6651C16.5824 19.8976 17.5916 18.2315 18.9529 17.1854C19.4411 16.8107 19.9741 16.6226 20.5 16.6226C21.0259 16.6226 21.5589 16.8107 22.0473 17.1854C23.4086 18.2315 24.4178 19.8976 24.2411 23.6651C24.2318 23.8659 24.2857 24.0645 24.3952 24.2325C24.5047 24.4005 24.6641 24.5293 24.8506 24.6003ZM20.5 0C22.7289 0.06032 24.9633 0.49648 26.9025 1.34496C28.2454 1.93328 29.4984 2.7104 30.633 3.63968C31.1454 4.0592 31.5673 4.46448 32.0321 4.93104C33.2856 4.97472 35.1175 3.57104 35.9679 2.2576C34.5043 7.0944 27.8252 12.8062 23.2013 14.9918C23.1994 14.991 23.1981 14.9899 23.1967 14.989C22.3668 14.3502 21.4335 14.0309 20.5 14.0309C19.5665 14.0309 18.6333 14.3502 17.8035 14.989C17.8021 14.9898 17.8008 14.9912 17.7989 14.9918C13.1748 12.8062 6.49588 7.0944 5.03223 2.2576C5.88254 3.57104 7.71445 4.97472 8.96794 4.93104C9.43286 4.46464 9.85477 4.0592 10.367 3.63968C11.5016 2.7104 12.7546 1.93328 14.0975 1.34496C16.0368 0.49648 18.2713 0.06032 20.5 0ZM16.4019 17.0986C14.9454 16.3664 13.0918 15.2886 11.2362 13.812C10.8449 14.631 10.8021 15.3458 11.0035 15.9229C11.1465 16.3296 11.4157 16.6834 11.7695 16.9648C12.153 17.269 12.6318 17.4904 13.161 17.6101C14.1651 17.8381 15.3373 17.705 16.4019 17.0986Z" fill="#141715"/>
<path fill-rule="evenodd" clip-rule="evenodd" d="M31.7964 12.001C32.8179 10.9618 33.7181 9.81156 34.4419 8.78516L34.8095 9.4826C35.993 11.8693 36.6079 14.2464 36.6079 16.9216L36.6054 21.1668L36.6276 23.3674C36.7133 28.77 37.873 34.236 40.5 39.2383L35.0037 34.7708L31.1146 41.1322L27.0289 37.2552L20.5 47.9351L13.9711 37.2554L9.88556 41.1324L5.99651 34.7709L0.5 39.2384C3.12698 34.2362 4.28667 28.7701 4.37254 23.3676L4.39476 21.1669L4.39222 16.9218C4.39222 14.2464 5.00698 11.8693 6.19079 9.48276L6.55825 8.78532C7.28206 9.81172 8.18206 10.9618 9.20381 12.0012L8.88476 12.6692C8.26492 13.9666 8.05968 15.4173 8.54254 16.797C8.85381 17.6856 9.4219 18.4477 10.1543 19.0295C10.8654 19.5944 11.707 19.9752 12.5881 20.1752C13.1621 20.3055 13.7468 20.3591 14.3278 20.3408C14.1922 21.1154 14.133 21.9188 14.1292 22.7373L8.94444 25.7559L12.9454 28.0165C13.2652 28.1972 13.5696 28.4043 13.8556 28.6356C17.1541 31.6208 19.1373 40.4524 20.5002 44.7661C21.8632 40.4524 23.8462 31.6208 27.1449 28.6356C27.4308 28.4043 27.7353 28.1972 28.0551 28.0165L32.056 25.7559L26.8711 22.7373C26.8673 21.9188 26.8081 21.1154 26.6725 20.3408C27.2535 20.3591 27.8383 20.3055 28.4122 20.1752C29.2933 19.9752 30.1351 19.5944 30.846 19.0295C31.5783 18.4477 32.1465 17.6856 32.4576 16.797C32.9406 15.4173 32.7352 13.9668 32.1156 12.6692L31.7965 12.0012L31.7964 12.001Z" fill="#141715"/>
</g>
<defs>
<clipPath id="clip0_76_19">
<rect width="40" height="48" fill="white" transform="translate(0.5)"/>
</clipPath>
</defs>
</svg>
