<svg width="48" height="48" viewBox="0 0 48 48" fill="none" xmlns="http://www.w3.org/2000/svg">
<g clip-path="url(#clip0_76_22)">
<mask id="mask0_76_22" style="mask-type:luminance" maskUnits="userSpaceOnUse" x="0" y="0" width="48" height="48">
<path d="M48 0H0V48H48V0Z" fill="white"/>
</mask>
<g mask="url(#mask0_76_22)">
<path d="M4.49561 37.332C6.46205 40.0673 8.98446 42.3559 11.8974 44.048C14.8105 45.7399 18.0482 46.7971 21.3984 47.1501C19.6748 44.5563 17.1693 42.1701 14.0415 40.3534C10.9137 38.5367 7.60131 37.5442 4.49561 37.332Z" fill="url(#paint0_linear_76_22)"/>
<path d="M18.2444 33.122C12.2184 29.6211 5.69615 28.7289 1.0293 30.305C1.47983 31.794 2.074 33.2358 2.80344 34.6099C6.85813 34.5159 11.2852 35.6171 15.4045 38.0097C19.524 40.4023 22.6747 43.7044 24.6027 47.274C26.1584 47.2263 27.7061 47.0281 29.2237 46.6823C28.2802 41.8483 24.269 36.6237 18.2444 33.122Z" fill="url(#paint1_linear_76_22)"/>
<path d="M46.9603 18.9097C46.1942 15.7933 44.8078 12.8633 42.8842 10.2946C40.9606 7.72591 38.539 5.57117 35.7642 3.95907C32.9894 2.34697 29.9181 1.31057 26.7339 0.911739C23.5496 0.512912 20.3176 0.759841 17.231 1.63779C22.3876 2.26886 28.1115 4.2047 33.7249 7.46582C39.3384 10.7269 43.8593 14.7398 46.9603 18.9097Z" fill="url(#paint2_linear_76_22)"/>
<path d="M39.4577 30.338C36.8182 25.9544 32.2966 21.7569 26.7264 18.5211C21.1564 15.2852 15.2716 13.4369 10.1606 13.3146C5.66416 13.2081 2.28945 14.5153 0.904225 16.9C0.896335 16.9141 0.885291 16.9275 0.876615 16.9418C0.751976 17.389 0.644692 17.837 0.546875 18.2868C2.48115 17.5232 4.72227 17.098 7.21425 17.0506C12.7559 16.9466 18.9578 18.7191 24.681 22.044C30.4041 25.3691 35.0196 29.8805 37.6733 34.7445C38.863 36.936 39.6052 39.0935 39.8995 41.1547C40.2419 40.8487 40.5779 40.5323 40.9037 40.2034C40.9124 40.1885 40.918 40.1726 40.9265 40.1569C42.3119 37.7698 41.7761 34.1915 39.4577 30.338Z" fill="url(#paint3_linear_76_22)"/>
<path d="M22.4886 25.8135C13.9587 20.858 4.53274 20.0817 0 23.54C0.0089032 24.6225 0.0916605 25.7031 0.247699 26.7743C1.58108 26.3701 2.9553 26.1156 4.34499 26.0155C9.4102 25.6344 14.9945 27.0458 20.0621 29.9912C25.1296 32.9368 29.1244 37.091 31.3031 41.6765C31.9055 42.9327 32.3648 44.2526 32.6726 45.6113C33.6807 45.2161 34.6609 44.753 35.6064 44.2253C36.3652 38.5739 31.0208 30.7698 22.4886 25.8135Z" fill="url(#paint4_linear_76_22)"/>
<path d="M43.8445 23.003C41.1751 18.6241 36.6139 14.4148 31.0043 11.1576C25.3949 7.90046 19.4871 6.02299 14.3597 5.87232C10.4509 5.75952 7.42333 6.70692 5.85352 8.49683C12.3718 7.39243 20.9694 9.24861 29.3028 14.0898C37.6363 18.931 43.5101 25.4815 45.7773 31.6906C46.5543 29.4415 45.8782 26.3422 43.8445 23.003Z" fill="url(#paint5_linear_76_22)"/>
</g>
</g>
<defs>
<linearGradient id="paint0_linear_76_22" x1="31.2727" y1="10.1806" x2="9.69695" y2="47.2715" gradientUnits="userSpaceOnUse">
<stop offset="0.0001" stop-color="#141715"/>
<stop offset="1" stop-color="#141715" stop-opacity="0"/>
</linearGradient>
<linearGradient id="paint1_linear_76_22" x1="31.2728" y1="10.1831" x2="9.69695" y2="47.274" gradientUnits="userSpaceOnUse">
<stop offset="0.0001" stop-color="#141715"/>
<stop offset="1" stop-color="#141715" stop-opacity="0"/>
</linearGradient>
<linearGradient id="paint2_linear_76_22" x1="31.2727" y1="10.1811" x2="9.69693" y2="47.272" gradientUnits="userSpaceOnUse">
<stop offset="0.0001" stop-color="#141715"/>
<stop offset="1" stop-color="#141715" stop-opacity="0"/>
</linearGradient>
<linearGradient id="paint3_linear_76_22" x1="31.2729" y1="10.1805" x2="9.69713" y2="47.2714" gradientUnits="userSpaceOnUse">
<stop offset="0.0001" stop-color="#141715"/>
<stop offset="1" stop-color="#141715" stop-opacity="0"/>
</linearGradient>
<linearGradient id="paint4_linear_76_22" x1="31.2727" y1="10.1792" x2="9.69697" y2="47.2702" gradientUnits="userSpaceOnUse">
<stop offset="0.0001" stop-color="#141715"/>
<stop offset="1" stop-color="#141715" stop-opacity="0"/>
</linearGradient>
<linearGradient id="paint5_linear_76_22" x1="31.2723" y1="10.1825" x2="9.69658" y2="47.2734" gradientUnits="userSpaceOnUse">
<stop offset="0.0001" stop-color="#141715"/>
<stop offset="1" stop-color="#141715" stop-opacity="0"/>
</linearGradient>
<clipPath id="clip0_76_22">
<rect width="48" height="48" fill="white"/>
</clipPath>
</defs>
</svg>
