<svg width="511" height="249" viewBox="0 0 511 249" fill="none" xmlns="http://www.w3.org/2000/svg">
<mask id="path-1-outside-1_78_80" maskUnits="userSpaceOnUse" x="3" y="3" width="509" height="246" fill="black">
<rect fill="white" x="3" y="3" width="509" height="246"/>
<path d="M395.511 18.1128C397.147 6.23072 415.648 9.44877 414.138 21.3308C410.614 48.0655 410.866 85.6918 381.792 98.564C370.59 103.515 364.046 86.1869 374.995 81.2364C380.659 78.7608 384.183 74.0576 386.449 68.6114C379.526 70.963 372.227 71.0869 365.43 67.6212C347.181 58.4623 349.068 32.8416 355.865 17.3701C360.773 6.3545 377.891 14.1521 372.982 25.1678C370.464 30.8612 366.311 46.2089 373.36 50.7885C380.407 55.368 389.721 45.7138 392.742 39.7728C393.749 32.5941 394.63 25.2915 395.511 18.1128Z"/>
<path d="M338.25 30.245C340.641 41.2607 333.215 48.687 323.272 53.3903C325.16 56.237 326.293 59.8264 326.418 64.0348C326.67 79.7538 311.189 91.2646 296.464 92.9972C280.857 94.7298 266.761 86.4374 267.264 69.8522C267.768 51.7813 271.795 33.2156 274.187 15.2687C274.816 10.8129 280.228 8.21372 284.507 8.58503C284.759 8.46126 285.011 8.33749 285.388 8.21372C303.009 1.77761 333.719 9.45143 338.25 30.245ZM306.155 25.2942C301.12 23.9327 296.589 24.0565 291.681 25.6655C291.052 30.9876 290.297 36.3099 289.542 41.632C290.171 41.5082 290.674 41.5082 291.303 41.5082C291.933 41.5082 292.688 41.5082 293.317 41.5082C298.729 41.3845 303.89 40.6419 309.05 38.7853C311.189 38.0426 319.371 35.1959 319.497 33.3393C319.874 29.8737 308.169 25.913 306.155 25.2942ZM304.897 69.4804C312.574 61.1879 299.988 60.074 293.191 60.074C292.562 60.074 291.933 60.074 291.303 60.074C289.793 59.9502 288.409 59.7027 287.276 59.2076C287.024 61.3117 286.646 63.4157 286.521 65.6435C286.269 67.8717 285.136 72.0799 286.772 73.6891C290.926 77.8972 301.876 72.8222 304.897 69.4804Z"/>
<path d="M254.463 27.5101C257.358 49.7889 248.17 85.3112 221.362 89.7672C188.26 95.3367 185.995 47.1897 187.505 26.2723C188.386 14.514 207.265 14.3903 206.384 26.2723C205.881 33.6986 204.748 78.1324 220.606 70.7063C235.332 63.7748 237.346 41.1249 235.584 27.5101C234.073 15.7518 252.953 15.8755 254.463 27.5101Z"/>
<path d="M168.199 28.0287C179.778 42.1386 174.492 64.2938 164.801 79.5176C167.57 84.3448 169.332 89.5432 169.584 95.6078C169.835 107.49 150.956 107.49 150.704 95.6078C150.704 95.1127 150.579 94.6176 150.579 94.1225C135.349 103.901 114.96 103.406 105.269 85.2111C93.3119 62.6845 103.507 27.4098 128.679 18.4983C142.523 13.5474 158.76 16.5179 168.199 28.0287ZM121.127 74.6905C121.379 75.4329 121.756 76.1758 122.134 76.9182C126.413 84.2209 134.72 82.6117 140.636 78.4035C138.496 76.0519 136.23 73.9481 134.343 72.091C126.161 63.1797 139.503 50.06 147.684 58.9715C147.935 59.2191 152.215 63.1796 152.089 63.4275C153.977 59.0953 155.865 54.5158 156.242 49.8124C156.62 45.1091 155.11 39.9107 151.208 36.9402C143.53 30.9991 132.454 36.9402 127.42 43.5001C120.875 51.7928 116.974 64.665 121.127 74.6905Z"/>
<path d="M506.634 155.998C501.725 164.29 496.062 172.954 488.636 179.391C496.439 188.302 501.096 199.194 502.228 211.571C503.361 223.453 484.482 223.329 483.349 211.571C482.594 202.783 478.441 194.615 471.896 188.673C471.015 199.07 469.883 209.343 468.372 219.74C467.743 224.691 461.198 227.414 456.793 226.176C451.381 224.691 449.493 219.74 450.248 214.789C453.395 191.396 454.905 167.756 455.031 144.116C455.157 132.11 474.036 132.11 473.91 144.116C473.91 152.161 473.658 160.082 473.281 168.127C480.707 163.795 486.37 153.275 490.398 146.591C496.439 136.318 512.801 145.601 506.634 155.998Z"/>
<path d="M419.447 158.949C421.084 147.191 439.333 152.266 437.571 163.9C434.173 186.674 429.893 209.324 424.859 231.727C423.223 239.153 410.889 241.381 407.617 233.954C403.589 224.919 399.687 216.008 395.66 206.972C393.142 217.74 390.751 228.509 388.737 239.277C386.472 251.035 368.222 246.084 370.488 234.326C374.263 214.77 378.794 195.214 384.08 175.906C386.094 168.851 398.051 166.128 401.323 173.678L412.525 198.927C415.042 185.684 417.434 172.317 419.447 158.949Z"/>
<path d="M352.682 155.363C358.597 164.893 358.471 179.127 356.835 189.771C355.073 200.539 349.787 210.813 341.228 217.867C332.796 224.675 320.965 228.512 310.267 225.046C299.946 221.828 293.276 211.431 290.632 201.529C286.856 187.049 288.745 161.18 301.96 150.04C315.427 136.55 342.361 138.654 352.682 155.363ZM329.775 203.51C338.208 195.589 339.844 182.84 338.334 171.948C337.452 164.769 332.418 159.571 324.615 159.695C320.084 159.819 315.679 162.046 313.036 165.636C310.141 169.72 308.882 176.033 308.253 180.983C307.624 186.43 307.875 191.999 309.134 197.321C310.015 200.539 311.274 203.881 314.043 205.862C318.322 209.079 324.741 207.718 328.768 204.376C329.146 204.005 329.398 203.758 329.775 203.51Z"/>
<path d="M276.166 166.388C278.557 177.404 271.132 184.83 261.189 189.533C263.076 192.38 264.209 195.97 264.335 200.178C264.587 215.897 249.106 227.408 234.38 229.14C218.773 230.873 204.677 222.581 205.181 205.995C205.684 187.925 209.712 169.359 212.103 151.412C212.732 146.956 218.144 144.357 222.423 144.728C222.675 144.605 222.927 144.481 223.304 144.357C240.925 137.921 271.635 145.595 276.166 166.388ZM244.071 161.437C239.037 160.076 234.506 160.2 229.597 161.809C228.968 167.131 228.213 172.453 227.458 177.775C228.087 177.651 228.59 177.651 229.22 177.651C229.849 177.651 230.605 177.651 231.234 177.651C236.646 177.528 241.806 176.785 246.967 174.928C249.106 174.186 257.287 171.339 257.413 169.482C257.79 166.017 246.085 162.056 244.071 161.437ZM242.813 205.624C250.49 197.331 237.904 196.217 231.108 196.217C230.479 196.217 229.849 196.217 229.22 196.217C227.71 196.094 226.325 195.846 225.192 195.351C224.941 197.455 224.563 199.559 224.437 201.787C224.185 204.015 223.053 208.223 224.689 209.832C228.842 214.04 239.792 208.966 242.813 205.624Z"/>
<path d="M136.528 158.949C138.164 147.191 156.414 152.266 154.652 163.9C151.254 186.674 146.975 209.324 141.94 231.727C140.304 239.153 127.969 241.381 124.697 233.954C120.67 224.919 116.768 216.008 112.74 206.972C110.223 217.74 107.832 228.509 105.818 239.277C103.553 251.035 85.3028 246.084 87.5684 234.326C91.3444 214.77 95.8755 195.214 101.162 175.906C103.175 168.851 115.132 166.128 118.404 173.678L129.606 198.927C132.123 185.684 134.514 172.317 136.528 158.949Z"/>
<path d="M69.7671 155.363C75.6828 164.893 75.5568 179.127 73.9204 189.771C72.1586 200.539 66.8725 210.813 58.3138 217.867C49.8812 224.675 38.0503 228.512 27.3521 225.046C17.0316 221.828 10.361 211.431 7.71789 201.529C3.94208 187.049 5.82998 161.18 19.0453 150.04C32.5124 136.55 59.4466 138.654 69.7671 155.363ZM46.8605 203.51C55.2932 195.589 56.9294 182.84 55.4191 171.948C54.5381 164.769 49.5036 159.571 41.7002 159.695C37.1693 159.819 32.7642 162.046 30.1211 165.636C27.2263 169.72 25.9676 176.033 25.3384 180.983C24.7091 186.43 24.9608 191.999 26.2194 197.321C27.1004 200.539 28.359 203.881 31.128 205.862C35.4072 209.079 41.8261 207.718 45.8537 204.376C46.2312 204.005 46.483 203.758 46.8605 203.51Z"/>
</mask>
<path d="M395.511 18.1128C397.147 6.23072 415.648 9.44877 414.138 21.3308C410.614 48.0655 410.866 85.6918 381.792 98.564C370.59 103.515 364.046 86.1869 374.995 81.2364C380.659 78.7608 384.183 74.0576 386.449 68.6114C379.526 70.963 372.227 71.0869 365.43 67.6212C347.181 58.4623 349.068 32.8416 355.865 17.3701C360.773 6.3545 377.891 14.1521 372.982 25.1678C370.464 30.8612 366.311 46.2089 373.36 50.7885C380.407 55.368 389.721 45.7138 392.742 39.7728C393.749 32.5941 394.63 25.2915 395.511 18.1128Z" fill="black"/>
<path d="M338.25 30.245C340.641 41.2607 333.215 48.687 323.272 53.3903C325.16 56.237 326.293 59.8264 326.418 64.0348C326.67 79.7538 311.189 91.2646 296.464 92.9972C280.857 94.7298 266.761 86.4374 267.264 69.8522C267.768 51.7813 271.795 33.2156 274.187 15.2687C274.816 10.8129 280.228 8.21372 284.507 8.58503C284.759 8.46126 285.011 8.33749 285.388 8.21372C303.009 1.77761 333.719 9.45143 338.25 30.245ZM306.155 25.2942C301.12 23.9327 296.589 24.0565 291.681 25.6655C291.052 30.9876 290.297 36.3099 289.542 41.632C290.171 41.5082 290.674 41.5082 291.303 41.5082C291.933 41.5082 292.688 41.5082 293.317 41.5082C298.729 41.3845 303.89 40.6419 309.05 38.7853C311.189 38.0426 319.371 35.1959 319.497 33.3393C319.874 29.8737 308.169 25.913 306.155 25.2942ZM304.897 69.4804C312.574 61.1879 299.988 60.074 293.191 60.074C292.562 60.074 291.933 60.074 291.303 60.074C289.793 59.9502 288.409 59.7027 287.276 59.2076C287.024 61.3117 286.646 63.4157 286.521 65.6435C286.269 67.8717 285.136 72.0799 286.772 73.6891C290.926 77.8972 301.876 72.8222 304.897 69.4804Z" fill="black"/>
<path d="M254.463 27.5101C257.358 49.7889 248.17 85.3112 221.362 89.7672C188.26 95.3367 185.995 47.1897 187.505 26.2723C188.386 14.514 207.265 14.3903 206.384 26.2723C205.881 33.6986 204.748 78.1324 220.606 70.7063C235.332 63.7748 237.346 41.1249 235.584 27.5101C234.073 15.7518 252.953 15.8755 254.463 27.5101Z" fill="black"/>
<path d="M168.199 28.0287C179.778 42.1386 174.492 64.2938 164.801 79.5176C167.57 84.3448 169.332 89.5432 169.584 95.6078C169.835 107.49 150.956 107.49 150.704 95.6078C150.704 95.1127 150.579 94.6176 150.579 94.1225C135.349 103.901 114.96 103.406 105.269 85.2111C93.3119 62.6845 103.507 27.4098 128.679 18.4983C142.523 13.5474 158.76 16.5179 168.199 28.0287ZM121.127 74.6905C121.379 75.4329 121.756 76.1758 122.134 76.9182C126.413 84.2209 134.72 82.6117 140.636 78.4035C138.496 76.0519 136.23 73.9481 134.343 72.091C126.161 63.1797 139.503 50.06 147.684 58.9715C147.935 59.2191 152.215 63.1796 152.089 63.4275C153.977 59.0953 155.865 54.5158 156.242 49.8124C156.62 45.1091 155.11 39.9107 151.208 36.9402C143.53 30.9991 132.454 36.9402 127.42 43.5001C120.875 51.7928 116.974 64.665 121.127 74.6905Z" fill="black"/>
<path d="M506.634 155.998C501.725 164.29 496.062 172.954 488.636 179.391C496.439 188.302 501.096 199.194 502.228 211.571C503.361 223.453 484.482 223.329 483.349 211.571C482.594 202.783 478.441 194.615 471.896 188.673C471.015 199.07 469.883 209.343 468.372 219.74C467.743 224.691 461.198 227.414 456.793 226.176C451.381 224.691 449.493 219.74 450.248 214.789C453.395 191.396 454.905 167.756 455.031 144.116C455.157 132.11 474.036 132.11 473.91 144.116C473.91 152.161 473.658 160.082 473.281 168.127C480.707 163.795 486.37 153.275 490.398 146.591C496.439 136.318 512.801 145.601 506.634 155.998Z" fill="black"/>
<path d="M419.447 158.949C421.084 147.191 439.333 152.266 437.571 163.9C434.173 186.674 429.893 209.324 424.859 231.727C423.223 239.153 410.889 241.381 407.617 233.954C403.589 224.919 399.687 216.008 395.66 206.972C393.142 217.74 390.751 228.509 388.737 239.277C386.472 251.035 368.222 246.084 370.488 234.326C374.263 214.77 378.794 195.214 384.08 175.906C386.094 168.851 398.051 166.128 401.323 173.678L412.525 198.927C415.042 185.684 417.434 172.317 419.447 158.949Z" fill="black"/>
<path d="M352.682 155.363C358.597 164.893 358.471 179.127 356.835 189.771C355.073 200.539 349.787 210.813 341.228 217.867C332.796 224.675 320.965 228.512 310.267 225.046C299.946 221.828 293.276 211.431 290.632 201.529C286.856 187.049 288.745 161.18 301.96 150.04C315.427 136.55 342.361 138.654 352.682 155.363ZM329.775 203.51C338.208 195.589 339.844 182.84 338.334 171.948C337.452 164.769 332.418 159.571 324.615 159.695C320.084 159.819 315.679 162.046 313.036 165.636C310.141 169.72 308.882 176.033 308.253 180.983C307.624 186.43 307.875 191.999 309.134 197.321C310.015 200.539 311.274 203.881 314.043 205.862C318.322 209.079 324.741 207.718 328.768 204.376C329.146 204.005 329.398 203.758 329.775 203.51Z" fill="black"/>
<path d="M276.166 166.388C278.557 177.404 271.132 184.83 261.189 189.533C263.076 192.38 264.209 195.97 264.335 200.178C264.587 215.897 249.106 227.408 234.38 229.14C218.773 230.873 204.677 222.581 205.181 205.995C205.684 187.925 209.712 169.359 212.103 151.412C212.732 146.956 218.144 144.357 222.423 144.728C222.675 144.605 222.927 144.481 223.304 144.357C240.925 137.921 271.635 145.595 276.166 166.388ZM244.071 161.437C239.037 160.076 234.506 160.2 229.597 161.809C228.968 167.131 228.213 172.453 227.458 177.775C228.087 177.651 228.59 177.651 229.22 177.651C229.849 177.651 230.605 177.651 231.234 177.651C236.646 177.528 241.806 176.785 246.967 174.928C249.106 174.186 257.287 171.339 257.413 169.482C257.79 166.017 246.085 162.056 244.071 161.437ZM242.813 205.624C250.49 197.331 237.904 196.217 231.108 196.217C230.479 196.217 229.849 196.217 229.22 196.217C227.71 196.094 226.325 195.846 225.192 195.351C224.941 197.455 224.563 199.559 224.437 201.787C224.185 204.015 223.053 208.223 224.689 209.832C228.842 214.04 239.792 208.966 242.813 205.624Z" fill="black"/>
<path d="M136.528 158.949C138.164 147.191 156.414 152.266 154.652 163.9C151.254 186.674 146.975 209.324 141.94 231.727C140.304 239.153 127.969 241.381 124.697 233.954C120.67 224.919 116.768 216.008 112.74 206.972C110.223 217.74 107.832 228.509 105.818 239.277C103.553 251.035 85.3028 246.084 87.5684 234.326C91.3444 214.77 95.8755 195.214 101.162 175.906C103.175 168.851 115.132 166.128 118.404 173.678L129.606 198.927C132.123 185.684 134.514 172.317 136.528 158.949Z" fill="black"/>
<path d="M69.7671 155.363C75.6828 164.893 75.5568 179.127 73.9204 189.771C72.1586 200.539 66.8725 210.813 58.3138 217.867C49.8812 224.675 38.0503 228.512 27.3521 225.046C17.0316 221.828 10.361 211.431 7.71789 201.529C3.94208 187.049 5.82998 161.18 19.0453 150.04C32.5124 136.55 59.4466 138.654 69.7671 155.363ZM46.8605 203.51C55.2932 195.589 56.9294 182.84 55.4191 171.948C54.5381 164.769 49.5036 159.571 41.7002 159.695C37.1693 159.819 32.7642 162.046 30.1211 165.636C27.2263 169.72 25.9676 176.033 25.3384 180.983C24.7091 186.43 24.9608 191.999 26.2194 197.321C27.1004 200.539 28.359 203.881 31.128 205.862C35.4072 209.079 41.8261 207.718 45.8537 204.376C46.2312 204.005 46.483 203.758 46.8605 203.51Z" fill="black"/>
<path d="M395.511 18.1128C397.147 6.23072 415.648 9.44877 414.138 21.3308C410.614 48.0655 410.866 85.6918 381.792 98.564C370.59 103.515 364.046 86.1869 374.995 81.2364C380.659 78.7608 384.183 74.0576 386.449 68.6114C379.526 70.963 372.227 71.0869 365.43 67.6212C347.181 58.4623 349.068 32.8416 355.865 17.3701C360.773 6.3545 377.891 14.1521 372.982 25.1678C370.464 30.8612 366.311 46.2089 373.36 50.7885C380.407 55.368 389.721 45.7138 392.742 39.7728C393.749 32.5941 394.63 25.2915 395.511 18.1128Z" stroke="black" stroke-width="6" mask="url(#path-1-outside-1_78_80)"/>
<path d="M338.25 30.245C340.641 41.2607 333.215 48.687 323.272 53.3903C325.16 56.237 326.293 59.8264 326.418 64.0348C326.67 79.7538 311.189 91.2646 296.464 92.9972C280.857 94.7298 266.761 86.4374 267.264 69.8522C267.768 51.7813 271.795 33.2156 274.187 15.2687C274.816 10.8129 280.228 8.21372 284.507 8.58503C284.759 8.46126 285.011 8.33749 285.388 8.21372C303.009 1.77761 333.719 9.45143 338.25 30.245ZM306.155 25.2942C301.12 23.9327 296.589 24.0565 291.681 25.6655C291.052 30.9876 290.297 36.3099 289.542 41.632C290.171 41.5082 290.674 41.5082 291.303 41.5082C291.933 41.5082 292.688 41.5082 293.317 41.5082C298.729 41.3845 303.89 40.6419 309.05 38.7853C311.189 38.0426 319.371 35.1959 319.497 33.3393C319.874 29.8737 308.169 25.913 306.155 25.2942ZM304.897 69.4804C312.574 61.1879 299.988 60.074 293.191 60.074C292.562 60.074 291.933 60.074 291.303 60.074C289.793 59.9502 288.409 59.7027 287.276 59.2076C287.024 61.3117 286.646 63.4157 286.521 65.6435C286.269 67.8717 285.136 72.0799 286.772 73.6891C290.926 77.8972 301.876 72.8222 304.897 69.4804Z" stroke="black" stroke-width="6" mask="url(#path-1-outside-1_78_80)"/>
<path d="M254.463 27.5101C257.358 49.7889 248.17 85.3112 221.362 89.7672C188.26 95.3367 185.995 47.1897 187.505 26.2723C188.386 14.514 207.265 14.3903 206.384 26.2723C205.881 33.6986 204.748 78.1324 220.606 70.7063C235.332 63.7748 237.346 41.1249 235.584 27.5101C234.073 15.7518 252.953 15.8755 254.463 27.5101Z" stroke="black" stroke-width="6" mask="url(#path-1-outside-1_78_80)"/>
<path d="M168.199 28.0287C179.778 42.1386 174.492 64.2938 164.801 79.5176C167.57 84.3448 169.332 89.5432 169.584 95.6078C169.835 107.49 150.956 107.49 150.704 95.6078C150.704 95.1127 150.579 94.6176 150.579 94.1225C135.349 103.901 114.96 103.406 105.269 85.2111C93.3119 62.6845 103.507 27.4098 128.679 18.4983C142.523 13.5474 158.76 16.5179 168.199 28.0287ZM121.127 74.6905C121.379 75.4329 121.756 76.1758 122.134 76.9182C126.413 84.2209 134.72 82.6117 140.636 78.4035C138.496 76.0519 136.23 73.9481 134.343 72.091C126.161 63.1797 139.503 50.06 147.684 58.9715C147.935 59.2191 152.215 63.1796 152.089 63.4275C153.977 59.0953 155.865 54.5158 156.242 49.8124C156.62 45.1091 155.11 39.9107 151.208 36.9402C143.53 30.9991 132.454 36.9402 127.42 43.5001C120.875 51.7928 116.974 64.665 121.127 74.6905Z" stroke="black" stroke-width="6" mask="url(#path-1-outside-1_78_80)"/>
<path d="M506.634 155.998C501.725 164.29 496.062 172.954 488.636 179.391C496.439 188.302 501.096 199.194 502.228 211.571C503.361 223.453 484.482 223.329 483.349 211.571C482.594 202.783 478.441 194.615 471.896 188.673C471.015 199.07 469.883 209.343 468.372 219.74C467.743 224.691 461.198 227.414 456.793 226.176C451.381 224.691 449.493 219.74 450.248 214.789C453.395 191.396 454.905 167.756 455.031 144.116C455.157 132.11 474.036 132.11 473.91 144.116C473.91 152.161 473.658 160.082 473.281 168.127C480.707 163.795 486.37 153.275 490.398 146.591C496.439 136.318 512.801 145.601 506.634 155.998Z" stroke="black" stroke-width="6" mask="url(#path-1-outside-1_78_80)"/>
<path d="M419.447 158.949C421.084 147.191 439.333 152.266 437.571 163.9C434.173 186.674 429.893 209.324 424.859 231.727C423.223 239.153 410.889 241.381 407.617 233.954C403.589 224.919 399.687 216.008 395.66 206.972C393.142 217.74 390.751 228.509 388.737 239.277C386.472 251.035 368.222 246.084 370.488 234.326C374.263 214.77 378.794 195.214 384.08 175.906C386.094 168.851 398.051 166.128 401.323 173.678L412.525 198.927C415.042 185.684 417.434 172.317 419.447 158.949Z" stroke="black" stroke-width="6" mask="url(#path-1-outside-1_78_80)"/>
<path d="M352.682 155.363C358.597 164.893 358.471 179.127 356.835 189.771C355.073 200.539 349.787 210.813 341.228 217.867C332.796 224.675 320.965 228.512 310.267 225.046C299.946 221.828 293.276 211.431 290.632 201.529C286.856 187.049 288.745 161.18 301.96 150.04C315.427 136.55 342.361 138.654 352.682 155.363ZM329.775 203.51C338.208 195.589 339.844 182.84 338.334 171.948C337.452 164.769 332.418 159.571 324.615 159.695C320.084 159.819 315.679 162.046 313.036 165.636C310.141 169.72 308.882 176.033 308.253 180.983C307.624 186.43 307.875 191.999 309.134 197.321C310.015 200.539 311.274 203.881 314.043 205.862C318.322 209.079 324.741 207.718 328.768 204.376C329.146 204.005 329.398 203.758 329.775 203.51Z" stroke="black" stroke-width="6" mask="url(#path-1-outside-1_78_80)"/>
<path d="M276.166 166.388C278.557 177.404 271.132 184.83 261.189 189.533C263.076 192.38 264.209 195.97 264.335 200.178C264.587 215.897 249.106 227.408 234.38 229.14C218.773 230.873 204.677 222.581 205.181 205.995C205.684 187.925 209.712 169.359 212.103 151.412C212.732 146.956 218.144 144.357 222.423 144.728C222.675 144.605 222.927 144.481 223.304 144.357C240.925 137.921 271.635 145.595 276.166 166.388ZM244.071 161.437C239.037 160.076 234.506 160.2 229.597 161.809C228.968 167.131 228.213 172.453 227.458 177.775C228.087 177.651 228.59 177.651 229.22 177.651C229.849 177.651 230.605 177.651 231.234 177.651C236.646 177.528 241.806 176.785 246.967 174.928C249.106 174.186 257.287 171.339 257.413 169.482C257.79 166.017 246.085 162.056 244.071 161.437ZM242.813 205.624C250.49 197.331 237.904 196.217 231.108 196.217C230.479 196.217 229.849 196.217 229.22 196.217C227.71 196.094 226.325 195.846 225.192 195.351C224.941 197.455 224.563 199.559 224.437 201.787C224.185 204.015 223.053 208.223 224.689 209.832C228.842 214.04 239.792 208.966 242.813 205.624Z" stroke="black" stroke-width="6" mask="url(#path-1-outside-1_78_80)"/>
<path d="M136.528 158.949C138.164 147.191 156.414 152.266 154.652 163.9C151.254 186.674 146.975 209.324 141.94 231.727C140.304 239.153 127.969 241.381 124.697 233.954C120.67 224.919 116.768 216.008 112.74 206.972C110.223 217.74 107.832 228.509 105.818 239.277C103.553 251.035 85.3028 246.084 87.5684 234.326C91.3444 214.77 95.8755 195.214 101.162 175.906C103.175 168.851 115.132 166.128 118.404 173.678L129.606 198.927C132.123 185.684 134.514 172.317 136.528 158.949Z" stroke="black" stroke-width="6" mask="url(#path-1-outside-1_78_80)"/>
<path d="M69.7671 155.363C75.6828 164.893 75.5568 179.127 73.9204 189.771C72.1586 200.539 66.8725 210.813 58.3138 217.867C49.8812 224.675 38.0503 228.512 27.3521 225.046C17.0316 221.828 10.361 211.431 7.71789 201.529C3.94208 187.049 5.82998 161.18 19.0453 150.04C32.5124 136.55 59.4466 138.654 69.7671 155.363ZM46.8605 203.51C55.2932 195.589 56.9294 182.84 55.4191 171.948C54.5381 164.769 49.5036 159.571 41.7002 159.695C37.1693 159.819 32.7642 162.046 30.1211 165.636C27.2263 169.72 25.9676 176.033 25.3384 180.983C24.7091 186.43 24.9608 191.999 26.2194 197.321C27.1004 200.539 28.359 203.881 31.128 205.862C35.4072 209.079 41.8261 207.718 45.8537 204.376C46.2312 204.005 46.483 203.758 46.8605 203.51Z" stroke="black" stroke-width="6" mask="url(#path-1-outside-1_78_80)"/>
<mask id="path-2-outside-2_78_80" maskUnits="userSpaceOnUse" x="0" y="0" width="509" height="246" fill="black">
<rect fill="white" width="509" height="246"/>
<path d="M392.511 15.1128C394.147 3.23072 412.648 6.44877 411.138 18.3308C407.614 45.0655 407.866 82.6918 378.792 95.564C367.59 100.515 361.046 83.1869 371.995 78.2364C377.659 75.7608 381.183 71.0576 383.449 65.6114C376.526 67.963 369.227 68.0869 362.43 64.6212C344.181 55.4623 346.068 29.8416 352.865 14.3701C357.773 3.3545 374.891 11.1521 369.982 22.1678C367.464 27.8612 363.311 43.2089 370.36 47.7885C377.407 52.368 386.721 42.7138 389.742 36.7728C390.749 29.5941 391.63 22.2915 392.511 15.1128Z"/>
<path d="M335.25 27.245C337.641 38.2607 330.215 45.687 320.272 50.3903C322.16 53.237 323.293 56.8264 323.418 61.0348C323.67 76.7538 308.189 88.2646 293.464 89.9972C277.857 91.7298 263.761 83.4374 264.264 66.8522C264.768 48.7813 268.795 30.2156 271.187 12.2687C271.816 7.81292 277.228 5.21372 281.507 5.58503C281.759 5.46126 282.011 5.33749 282.388 5.21372C300.009 -1.22239 330.719 6.45143 335.25 27.245ZM303.155 22.2942C298.12 20.9327 293.589 21.0565 288.681 22.6655C288.052 27.9876 287.297 33.3099 286.542 38.632C287.171 38.5082 287.674 38.5082 288.303 38.5082C288.933 38.5082 289.688 38.5082 290.317 38.5082C295.729 38.3845 300.89 37.6419 306.05 35.7853C308.189 35.0426 316.371 32.1959 316.497 30.3393C316.874 26.8737 305.169 22.913 303.155 22.2942ZM301.897 66.4804C309.574 58.1879 296.988 57.074 290.191 57.074C289.562 57.074 288.933 57.074 288.303 57.074C286.793 56.9502 285.409 56.7027 284.276 56.2076C284.024 58.3117 283.646 60.4157 283.521 62.6435C283.269 64.8717 282.136 69.0799 283.772 70.6891C287.926 74.8972 298.876 69.8222 301.897 66.4804Z"/>
<path d="M251.463 24.5101C254.358 46.7889 245.17 82.3112 218.362 86.7672C185.26 92.3367 182.995 44.1897 184.505 23.2723C185.386 11.514 204.265 11.3903 203.384 23.2723C202.881 30.6986 201.748 75.1324 217.606 67.7063C232.332 60.7748 234.346 38.1249 232.584 24.5101C231.073 12.7518 249.953 12.8755 251.463 24.5101Z"/>
<path d="M165.199 25.0287C176.778 39.1386 171.492 61.2938 161.801 76.5176C164.57 81.3448 166.332 86.5432 166.584 92.6078C166.835 104.49 147.956 104.49 147.704 92.6078C147.704 92.1127 147.579 91.6176 147.579 91.1225C132.349 100.901 111.96 100.406 102.269 82.2111C90.3119 59.6845 100.507 24.4098 125.679 15.4983C139.523 10.5474 155.76 13.5179 165.199 25.0287ZM118.127 71.6905C118.379 72.4329 118.756 73.1758 119.134 73.9182C123.413 81.2209 131.72 79.6117 137.636 75.4035C135.496 73.0519 133.23 70.9481 131.343 69.091C123.161 60.1797 136.503 47.06 144.684 55.9715C144.935 56.2191 149.215 60.1796 149.089 60.4275C150.977 56.0953 152.865 51.5158 153.242 46.8124C153.62 42.1091 152.11 36.9107 148.208 33.9402C140.53 27.9991 129.454 33.9402 124.42 40.5001C117.875 48.7928 113.974 61.665 118.127 71.6905Z"/>
<path d="M503.634 152.998C498.725 161.29 493.062 169.954 485.636 176.391C493.439 185.302 498.096 196.194 499.228 208.571C500.361 220.453 481.482 220.329 480.349 208.571C479.594 199.783 475.441 191.615 468.896 185.673C468.015 196.07 466.883 206.343 465.372 216.74C464.743 221.691 458.198 224.414 453.793 223.176C448.381 221.691 446.493 216.74 447.248 211.789C450.395 188.396 451.905 164.756 452.031 141.116C452.157 129.11 471.036 129.11 470.91 141.116C470.91 149.161 470.658 157.082 470.281 165.127C477.707 160.795 483.37 150.275 487.398 143.591C493.439 133.318 509.801 142.601 503.634 152.998Z"/>
<path d="M416.447 155.949C418.084 144.191 436.333 149.266 434.571 160.9C431.173 183.674 426.893 206.324 421.859 228.727C420.223 236.153 407.889 238.381 404.617 230.954C400.589 221.919 396.687 213.008 392.66 203.972C390.142 214.74 387.751 225.509 385.737 236.277C383.472 248.035 365.222 243.084 367.488 231.326C371.263 211.77 375.794 192.214 381.08 172.906C383.094 165.851 395.051 163.128 398.323 170.678L409.525 195.927C412.042 182.684 414.434 169.317 416.447 155.949Z"/>
<path d="M349.682 152.363C355.597 161.893 355.471 176.127 353.835 186.771C352.073 197.539 346.787 207.813 338.228 214.867C329.796 221.675 317.965 225.512 307.267 222.046C296.946 218.828 290.276 208.431 287.632 198.529C283.856 184.049 285.745 158.18 298.96 147.04C312.427 133.55 339.361 135.654 349.682 152.363ZM326.775 200.51C335.208 192.589 336.844 179.84 335.334 168.948C334.452 161.769 329.418 156.571 321.615 156.695C317.084 156.819 312.679 159.046 310.036 162.636C307.141 166.72 305.882 173.033 305.253 177.983C304.624 183.43 304.875 188.999 306.134 194.321C307.015 197.539 308.274 200.881 311.043 202.862C315.322 206.079 321.741 204.718 325.768 201.376C326.146 201.005 326.398 200.758 326.775 200.51Z"/>
<path d="M273.166 163.388C275.557 174.404 268.132 181.83 258.189 186.533C260.076 189.38 261.209 192.97 261.335 197.178C261.587 212.897 246.106 224.408 231.38 226.14C215.773 227.873 201.677 219.581 202.181 202.995C202.684 184.925 206.712 166.359 209.103 148.412C209.732 143.956 215.144 141.357 219.423 141.728C219.675 141.605 219.927 141.481 220.304 141.357C237.925 134.921 268.635 142.595 273.166 163.388ZM241.071 158.437C236.037 157.076 231.506 157.2 226.597 158.809C225.968 164.131 225.213 169.453 224.458 174.775C225.087 174.651 225.59 174.651 226.22 174.651C226.849 174.651 227.605 174.651 228.234 174.651C233.646 174.528 238.806 173.785 243.967 171.928C246.106 171.186 254.287 168.339 254.413 166.482C254.79 163.017 243.085 159.056 241.071 158.437ZM239.813 202.624C247.49 194.331 234.904 193.217 228.108 193.217C227.479 193.217 226.849 193.217 226.22 193.217C224.71 193.094 223.325 192.846 222.192 192.351C221.941 194.455 221.563 196.559 221.437 198.787C221.185 201.015 220.053 205.223 221.689 206.832C225.842 211.04 236.792 205.966 239.813 202.624Z"/>
<path d="M133.528 155.949C135.164 144.191 153.414 149.266 151.652 160.9C148.254 183.674 143.975 206.324 138.94 228.727C137.304 236.153 124.969 238.381 121.697 230.954C117.67 221.919 113.768 213.008 109.74 203.972C107.223 214.74 104.832 225.509 102.818 236.277C100.553 248.035 82.3028 243.084 84.5684 231.326C88.3444 211.77 92.8755 192.214 98.1615 172.906C100.175 165.851 112.132 163.128 115.404 170.678L126.606 195.927C129.123 182.684 131.514 169.317 133.528 155.949Z"/>
<path d="M66.7671 152.363C72.6828 161.893 72.5568 176.127 70.9204 186.771C69.1586 197.539 63.8725 207.813 55.3138 214.867C46.8812 221.675 35.0503 225.512 24.3521 222.046C14.0316 218.828 7.36097 208.431 4.71789 198.529C0.942077 184.049 2.82998 158.18 16.0453 147.04C29.5124 133.55 56.4466 135.654 66.7671 152.363ZM43.8605 200.51C52.2932 192.589 53.9294 179.84 52.4191 168.948C51.5381 161.769 46.5036 156.571 38.7002 156.695C34.1693 156.819 29.7642 159.046 27.1211 162.636C24.2263 166.72 22.9676 173.033 22.3384 177.983C21.7091 183.43 21.9608 188.999 23.2194 194.321C24.1004 197.539 25.359 200.881 28.128 202.862C32.4072 206.079 38.8261 204.718 42.8537 201.376C43.2312 201.005 43.483 200.758 43.8605 200.51Z"/>
</mask>
<path d="M392.511 15.1128C394.147 3.23072 412.648 6.44877 411.138 18.3308C407.614 45.0655 407.866 82.6918 378.792 95.564C367.59 100.515 361.046 83.1869 371.995 78.2364C377.659 75.7608 381.183 71.0576 383.449 65.6114C376.526 67.963 369.227 68.0869 362.43 64.6212C344.181 55.4623 346.068 29.8416 352.865 14.3701C357.773 3.3545 374.891 11.1521 369.982 22.1678C367.464 27.8612 363.311 43.2089 370.36 47.7885C377.407 52.368 386.721 42.7138 389.742 36.7728C390.749 29.5941 391.63 22.2915 392.511 15.1128Z" fill="white"/>
<path d="M335.25 27.245C337.641 38.2607 330.215 45.687 320.272 50.3903C322.16 53.237 323.293 56.8264 323.418 61.0348C323.67 76.7538 308.189 88.2646 293.464 89.9972C277.857 91.7298 263.761 83.4374 264.264 66.8522C264.768 48.7813 268.795 30.2156 271.187 12.2687C271.816 7.81292 277.228 5.21372 281.507 5.58503C281.759 5.46126 282.011 5.33749 282.388 5.21372C300.009 -1.22239 330.719 6.45143 335.25 27.245ZM303.155 22.2942C298.12 20.9327 293.589 21.0565 288.681 22.6655C288.052 27.9876 287.297 33.3099 286.542 38.632C287.171 38.5082 287.674 38.5082 288.303 38.5082C288.933 38.5082 289.688 38.5082 290.317 38.5082C295.729 38.3845 300.89 37.6419 306.05 35.7853C308.189 35.0426 316.371 32.1959 316.497 30.3393C316.874 26.8737 305.169 22.913 303.155 22.2942ZM301.897 66.4804C309.574 58.1879 296.988 57.074 290.191 57.074C289.562 57.074 288.933 57.074 288.303 57.074C286.793 56.9502 285.409 56.7027 284.276 56.2076C284.024 58.3117 283.646 60.4157 283.521 62.6435C283.269 64.8717 282.136 69.0799 283.772 70.6891C287.926 74.8972 298.876 69.8222 301.897 66.4804Z" fill="white"/>
<path d="M251.463 24.5101C254.358 46.7889 245.17 82.3112 218.362 86.7672C185.26 92.3367 182.995 44.1897 184.505 23.2723C185.386 11.514 204.265 11.3903 203.384 23.2723C202.881 30.6986 201.748 75.1324 217.606 67.7063C232.332 60.7748 234.346 38.1249 232.584 24.5101C231.073 12.7518 249.953 12.8755 251.463 24.5101Z" fill="white"/>
<path d="M165.199 25.0287C176.778 39.1386 171.492 61.2938 161.801 76.5176C164.57 81.3448 166.332 86.5432 166.584 92.6078C166.835 104.49 147.956 104.49 147.704 92.6078C147.704 92.1127 147.579 91.6176 147.579 91.1225C132.349 100.901 111.96 100.406 102.269 82.2111C90.3119 59.6845 100.507 24.4098 125.679 15.4983C139.523 10.5474 155.76 13.5179 165.199 25.0287ZM118.127 71.6905C118.379 72.4329 118.756 73.1758 119.134 73.9182C123.413 81.2209 131.72 79.6117 137.636 75.4035C135.496 73.0519 133.23 70.9481 131.343 69.091C123.161 60.1797 136.503 47.06 144.684 55.9715C144.935 56.2191 149.215 60.1796 149.089 60.4275C150.977 56.0953 152.865 51.5158 153.242 46.8124C153.62 42.1091 152.11 36.9107 148.208 33.9402C140.53 27.9991 129.454 33.9402 124.42 40.5001C117.875 48.7928 113.974 61.665 118.127 71.6905Z" fill="white"/>
<path d="M503.634 152.998C498.725 161.29 493.062 169.954 485.636 176.391C493.439 185.302 498.096 196.194 499.228 208.571C500.361 220.453 481.482 220.329 480.349 208.571C479.594 199.783 475.441 191.615 468.896 185.673C468.015 196.07 466.883 206.343 465.372 216.74C464.743 221.691 458.198 224.414 453.793 223.176C448.381 221.691 446.493 216.74 447.248 211.789C450.395 188.396 451.905 164.756 452.031 141.116C452.157 129.11 471.036 129.11 470.91 141.116C470.91 149.161 470.658 157.082 470.281 165.127C477.707 160.795 483.37 150.275 487.398 143.591C493.439 133.318 509.801 142.601 503.634 152.998Z" fill="white"/>
<path d="M416.447 155.949C418.084 144.191 436.333 149.266 434.571 160.9C431.173 183.674 426.893 206.324 421.859 228.727C420.223 236.153 407.889 238.381 404.617 230.954C400.589 221.919 396.687 213.008 392.66 203.972C390.142 214.74 387.751 225.509 385.737 236.277C383.472 248.035 365.222 243.084 367.488 231.326C371.263 211.77 375.794 192.214 381.08 172.906C383.094 165.851 395.051 163.128 398.323 170.678L409.525 195.927C412.042 182.684 414.434 169.317 416.447 155.949Z" fill="white"/>
<path d="M349.682 152.363C355.597 161.893 355.471 176.127 353.835 186.771C352.073 197.539 346.787 207.813 338.228 214.867C329.796 221.675 317.965 225.512 307.267 222.046C296.946 218.828 290.276 208.431 287.632 198.529C283.856 184.049 285.745 158.18 298.96 147.04C312.427 133.55 339.361 135.654 349.682 152.363ZM326.775 200.51C335.208 192.589 336.844 179.84 335.334 168.948C334.452 161.769 329.418 156.571 321.615 156.695C317.084 156.819 312.679 159.046 310.036 162.636C307.141 166.72 305.882 173.033 305.253 177.983C304.624 183.43 304.875 188.999 306.134 194.321C307.015 197.539 308.274 200.881 311.043 202.862C315.322 206.079 321.741 204.718 325.768 201.376C326.146 201.005 326.398 200.758 326.775 200.51Z" fill="white"/>
<path d="M273.166 163.388C275.557 174.404 268.132 181.83 258.189 186.533C260.076 189.38 261.209 192.97 261.335 197.178C261.587 212.897 246.106 224.408 231.38 226.14C215.773 227.873 201.677 219.581 202.181 202.995C202.684 184.925 206.712 166.359 209.103 148.412C209.732 143.956 215.144 141.357 219.423 141.728C219.675 141.605 219.927 141.481 220.304 141.357C237.925 134.921 268.635 142.595 273.166 163.388ZM241.071 158.437C236.037 157.076 231.506 157.2 226.597 158.809C225.968 164.131 225.213 169.453 224.458 174.775C225.087 174.651 225.59 174.651 226.22 174.651C226.849 174.651 227.605 174.651 228.234 174.651C233.646 174.528 238.806 173.785 243.967 171.928C246.106 171.186 254.287 168.339 254.413 166.482C254.79 163.017 243.085 159.056 241.071 158.437ZM239.813 202.624C247.49 194.331 234.904 193.217 228.108 193.217C227.479 193.217 226.849 193.217 226.22 193.217C224.71 193.094 223.325 192.846 222.192 192.351C221.941 194.455 221.563 196.559 221.437 198.787C221.185 201.015 220.053 205.223 221.689 206.832C225.842 211.04 236.792 205.966 239.813 202.624Z" fill="white"/>
<path d="M133.528 155.949C135.164 144.191 153.414 149.266 151.652 160.9C148.254 183.674 143.975 206.324 138.94 228.727C137.304 236.153 124.969 238.381 121.697 230.954C117.67 221.919 113.768 213.008 109.74 203.972C107.223 214.74 104.832 225.509 102.818 236.277C100.553 248.035 82.3028 243.084 84.5684 231.326C88.3444 211.77 92.8755 192.214 98.1615 172.906C100.175 165.851 112.132 163.128 115.404 170.678L126.606 195.927C129.123 182.684 131.514 169.317 133.528 155.949Z" fill="white"/>
<path d="M66.7671 152.363C72.6828 161.893 72.5568 176.127 70.9204 186.771C69.1586 197.539 63.8725 207.813 55.3138 214.867C46.8812 221.675 35.0503 225.512 24.3521 222.046C14.0316 218.828 7.36097 208.431 4.71789 198.529C0.942077 184.049 2.82998 158.18 16.0453 147.04C29.5124 133.55 56.4466 135.654 66.7671 152.363ZM43.8605 200.51C52.2932 192.589 53.9294 179.84 52.4191 168.948C51.5381 161.769 46.5036 156.571 38.7002 156.695C34.1693 156.819 29.7642 159.046 27.1211 162.636C24.2263 166.72 22.9676 173.033 22.3384 177.983C21.7091 183.43 21.9608 188.999 23.2194 194.321C24.1004 197.539 25.359 200.881 28.128 202.862C32.4072 206.079 38.8261 204.718 42.8537 201.376C43.2312 201.005 43.483 200.758 43.8605 200.51Z" fill="white"/>
<path d="M392.511 15.1128C394.147 3.23072 412.648 6.44877 411.138 18.3308C407.614 45.0655 407.866 82.6918 378.792 95.564C367.59 100.515 361.046 83.1869 371.995 78.2364C377.659 75.7608 381.183 71.0576 383.449 65.6114C376.526 67.963 369.227 68.0869 362.43 64.6212C344.181 55.4623 346.068 29.8416 352.865 14.3701C357.773 3.3545 374.891 11.1521 369.982 22.1678C367.464 27.8612 363.311 43.2089 370.36 47.7885C377.407 52.368 386.721 42.7138 389.742 36.7728C390.749 29.5941 391.63 22.2915 392.511 15.1128Z" stroke="black" stroke-width="6" mask="url(#path-2-outside-2_78_80)"/>
<path d="M335.25 27.245C337.641 38.2607 330.215 45.687 320.272 50.3903C322.16 53.237 323.293 56.8264 323.418 61.0348C323.67 76.7538 308.189 88.2646 293.464 89.9972C277.857 91.7298 263.761 83.4374 264.264 66.8522C264.768 48.7813 268.795 30.2156 271.187 12.2687C271.816 7.81292 277.228 5.21372 281.507 5.58503C281.759 5.46126 282.011 5.33749 282.388 5.21372C300.009 -1.22239 330.719 6.45143 335.25 27.245ZM303.155 22.2942C298.12 20.9327 293.589 21.0565 288.681 22.6655C288.052 27.9876 287.297 33.3099 286.542 38.632C287.171 38.5082 287.674 38.5082 288.303 38.5082C288.933 38.5082 289.688 38.5082 290.317 38.5082C295.729 38.3845 300.89 37.6419 306.05 35.7853C308.189 35.0426 316.371 32.1959 316.497 30.3393C316.874 26.8737 305.169 22.913 303.155 22.2942ZM301.897 66.4804C309.574 58.1879 296.988 57.074 290.191 57.074C289.562 57.074 288.933 57.074 288.303 57.074C286.793 56.9502 285.409 56.7027 284.276 56.2076C284.024 58.3117 283.646 60.4157 283.521 62.6435C283.269 64.8717 282.136 69.0799 283.772 70.6891C287.926 74.8972 298.876 69.8222 301.897 66.4804Z" stroke="black" stroke-width="6" mask="url(#path-2-outside-2_78_80)"/>
<path d="M251.463 24.5101C254.358 46.7889 245.17 82.3112 218.362 86.7672C185.26 92.3367 182.995 44.1897 184.505 23.2723C185.386 11.514 204.265 11.3903 203.384 23.2723C202.881 30.6986 201.748 75.1324 217.606 67.7063C232.332 60.7748 234.346 38.1249 232.584 24.5101C231.073 12.7518 249.953 12.8755 251.463 24.5101Z" stroke="black" stroke-width="6" mask="url(#path-2-outside-2_78_80)"/>
<path d="M165.199 25.0287C176.778 39.1386 171.492 61.2938 161.801 76.5176C164.57 81.3448 166.332 86.5432 166.584 92.6078C166.835 104.49 147.956 104.49 147.704 92.6078C147.704 92.1127 147.579 91.6176 147.579 91.1225C132.349 100.901 111.96 100.406 102.269 82.2111C90.3119 59.6845 100.507 24.4098 125.679 15.4983C139.523 10.5474 155.76 13.5179 165.199 25.0287ZM118.127 71.6905C118.379 72.4329 118.756 73.1758 119.134 73.9182C123.413 81.2209 131.72 79.6117 137.636 75.4035C135.496 73.0519 133.23 70.9481 131.343 69.091C123.161 60.1797 136.503 47.06 144.684 55.9715C144.935 56.2191 149.215 60.1796 149.089 60.4275C150.977 56.0953 152.865 51.5158 153.242 46.8124C153.62 42.1091 152.11 36.9107 148.208 33.9402C140.53 27.9991 129.454 33.9402 124.42 40.5001C117.875 48.7928 113.974 61.665 118.127 71.6905Z" stroke="black" stroke-width="6" mask="url(#path-2-outside-2_78_80)"/>
<path d="M503.634 152.998C498.725 161.29 493.062 169.954 485.636 176.391C493.439 185.302 498.096 196.194 499.228 208.571C500.361 220.453 481.482 220.329 480.349 208.571C479.594 199.783 475.441 191.615 468.896 185.673C468.015 196.07 466.883 206.343 465.372 216.74C464.743 221.691 458.198 224.414 453.793 223.176C448.381 221.691 446.493 216.74 447.248 211.789C450.395 188.396 451.905 164.756 452.031 141.116C452.157 129.11 471.036 129.11 470.91 141.116C470.91 149.161 470.658 157.082 470.281 165.127C477.707 160.795 483.37 150.275 487.398 143.591C493.439 133.318 509.801 142.601 503.634 152.998Z" stroke="black" stroke-width="6" mask="url(#path-2-outside-2_78_80)"/>
<path d="M416.447 155.949C418.084 144.191 436.333 149.266 434.571 160.9C431.173 183.674 426.893 206.324 421.859 228.727C420.223 236.153 407.889 238.381 404.617 230.954C400.589 221.919 396.687 213.008 392.66 203.972C390.142 214.74 387.751 225.509 385.737 236.277C383.472 248.035 365.222 243.084 367.488 231.326C371.263 211.77 375.794 192.214 381.08 172.906C383.094 165.851 395.051 163.128 398.323 170.678L409.525 195.927C412.042 182.684 414.434 169.317 416.447 155.949Z" stroke="black" stroke-width="6" mask="url(#path-2-outside-2_78_80)"/>
<path d="M349.682 152.363C355.597 161.893 355.471 176.127 353.835 186.771C352.073 197.539 346.787 207.813 338.228 214.867C329.796 221.675 317.965 225.512 307.267 222.046C296.946 218.828 290.276 208.431 287.632 198.529C283.856 184.049 285.745 158.18 298.96 147.04C312.427 133.55 339.361 135.654 349.682 152.363ZM326.775 200.51C335.208 192.589 336.844 179.84 335.334 168.948C334.452 161.769 329.418 156.571 321.615 156.695C317.084 156.819 312.679 159.046 310.036 162.636C307.141 166.72 305.882 173.033 305.253 177.983C304.624 183.43 304.875 188.999 306.134 194.321C307.015 197.539 308.274 200.881 311.043 202.862C315.322 206.079 321.741 204.718 325.768 201.376C326.146 201.005 326.398 200.758 326.775 200.51Z" stroke="black" stroke-width="6" mask="url(#path-2-outside-2_78_80)"/>
<path d="M273.166 163.388C275.557 174.404 268.132 181.83 258.189 186.533C260.076 189.38 261.209 192.97 261.335 197.178C261.587 212.897 246.106 224.408 231.38 226.14C215.773 227.873 201.677 219.581 202.181 202.995C202.684 184.925 206.712 166.359 209.103 148.412C209.732 143.956 215.144 141.357 219.423 141.728C219.675 141.605 219.927 141.481 220.304 141.357C237.925 134.921 268.635 142.595 273.166 163.388ZM241.071 158.437C236.037 157.076 231.506 157.2 226.597 158.809C225.968 164.131 225.213 169.453 224.458 174.775C225.087 174.651 225.59 174.651 226.22 174.651C226.849 174.651 227.605 174.651 228.234 174.651C233.646 174.528 238.806 173.785 243.967 171.928C246.106 171.186 254.287 168.339 254.413 166.482C254.79 163.017 243.085 159.056 241.071 158.437ZM239.813 202.624C247.49 194.331 234.904 193.217 228.108 193.217C227.479 193.217 226.849 193.217 226.22 193.217C224.71 193.094 223.325 192.846 222.192 192.351C221.941 194.455 221.563 196.559 221.437 198.787C221.185 201.015 220.053 205.223 221.689 206.832C225.842 211.04 236.792 205.966 239.813 202.624Z" stroke="black" stroke-width="6" mask="url(#path-2-outside-2_78_80)"/>
<path d="M133.528 155.949C135.164 144.191 153.414 149.266 151.652 160.9C148.254 183.674 143.975 206.324 138.94 228.727C137.304 236.153 124.969 238.381 121.697 230.954C117.67 221.919 113.768 213.008 109.74 203.972C107.223 214.74 104.832 225.509 102.818 236.277C100.553 248.035 82.3028 243.084 84.5684 231.326C88.3444 211.77 92.8755 192.214 98.1615 172.906C100.175 165.851 112.132 163.128 115.404 170.678L126.606 195.927C129.123 182.684 131.514 169.317 133.528 155.949Z" stroke="black" stroke-width="6" mask="url(#path-2-outside-2_78_80)"/>
<path d="M66.7671 152.363C72.6828 161.893 72.5568 176.127 70.9204 186.771C69.1586 197.539 63.8725 207.813 55.3138 214.867C46.8812 221.675 35.0503 225.512 24.3521 222.046C14.0316 218.828 7.36097 208.431 4.71789 198.529C0.942077 184.049 2.82998 158.18 16.0453 147.04C29.5124 133.55 56.4466 135.654 66.7671 152.363ZM43.8605 200.51C52.2932 192.589 53.9294 179.84 52.4191 168.948C51.5381 161.769 46.5036 156.571 38.7002 156.695C34.1693 156.819 29.7642 159.046 27.1211 162.636C24.2263 166.72 22.9676 173.033 22.3384 177.983C21.7091 183.43 21.9608 188.999 23.2194 194.321C24.1004 197.539 25.359 200.881 28.128 202.862C32.4072 206.079 38.8261 204.718 42.8537 201.376C43.2312 201.005 43.483 200.758 43.8605 200.51Z" stroke="black" stroke-width="6" mask="url(#path-2-outside-2_78_80)"/>
</svg>
